<svg width="360" height="640" viewBox="0 0 360 640" fill="none" xmlns="http://www.w3.org/2000/svg">
<rect width="360" height="640" fill="#FFC700"/>
<g clip-path="url(#clip0)">
<path d="M229.704 276.932L211.931 240.459C211.44 239.451 210.417 238.812 209.297 238.812H150.703C149.583 238.812 148.56 239.452 148.07 240.459L130.296 276.932C129.88 277.785 129.904 278.786 130.358 279.619C130.813 280.452 131.643 281.013 132.586 281.124C135.081 281.419 137.52 281.463 139.961 281.273V320.258C139.961 321.876 141.273 323.188 142.891 323.188C146.747 323.188 214.583 323.188 217.11 323.188C218.728 323.188 220.039 321.876 220.039 320.258V281.274C222.483 281.465 224.952 281.415 227.415 281.124C228.357 281.013 229.187 280.452 229.642 279.619C230.096 278.786 230.12 277.784 229.704 276.932ZM189.709 244.672L198.17 268.691C189.756 277.856 170.152 277.755 161.83 268.691L170.291 244.672H189.709ZM137.502 275.521L152.534 244.672H164.079L155.907 267.869C151.74 273.149 144.255 275.422 137.502 275.521ZM165.352 317.328H145.82V308.539H165.352V317.328ZM188.789 317.328H171.211V293.891H188.789V317.328ZM214.18 317.328H194.649V308.539H214.18V317.328ZM214.18 302.68H194.649V290.961C194.649 289.343 193.337 288.031 191.719 288.031H168.281C166.663 288.031 165.352 289.343 165.352 290.961V302.68H145.82V280.34C150.464 279.202 155.024 277.033 158.516 273.686C169.258 283.974 190.759 283.958 201.484 273.686C204.945 277.003 209.486 279.19 214.18 280.34V302.68ZM204.093 267.868L195.921 244.672H207.466L222.499 275.521C215.769 275.422 208.276 273.169 204.093 267.868Z" fill="#020202"/>
</g>
<path d="M99.802 373.408V376.352H90.106V383.36H98.106V386.176H90.106V396H86.458V373.408H99.802ZM111.116 378.144C112.822 378.144 114.358 378.507 115.724 379.232C117.089 379.957 118.156 381.003 118.924 382.368C119.692 383.733 120.076 385.333 120.076 387.168C120.076 389.024 119.692 390.635 118.924 392C118.156 393.365 117.089 394.411 115.724 395.136C114.358 395.861 112.822 396.224 111.116 396.224C109.409 396.224 107.873 395.861 106.508 395.136C105.164 394.411 104.097 393.365 103.308 392C102.54 390.613 102.156 389.003 102.156 387.168C102.156 385.333 102.54 383.733 103.308 382.368C104.097 381.003 105.164 379.957 106.508 379.232C107.873 378.507 109.409 378.144 111.116 378.144ZM111.116 381.312C110.177 381.312 109.313 381.525 108.524 381.952C107.734 382.379 107.094 383.04 106.604 383.936C106.134 384.811 105.9 385.888 105.9 387.168C105.9 388.469 106.134 389.557 106.604 390.432C107.094 391.307 107.734 391.957 108.524 392.384C109.313 392.811 110.177 393.024 111.116 393.024C112.054 393.024 112.918 392.811 113.708 392.384C114.497 391.957 115.126 391.307 115.596 390.432C116.086 389.557 116.332 388.469 116.332 387.168C116.332 385.888 116.086 384.811 115.596 383.936C115.126 383.04 114.497 382.379 113.708 381.952C112.918 381.525 112.054 381.312 111.116 381.312ZM131.647 378.144C133.354 378.144 134.89 378.507 136.255 379.232C137.62 379.957 138.687 381.003 139.455 382.368C140.223 383.733 140.607 385.333 140.607 387.168C140.607 389.024 140.223 390.635 139.455 392C138.687 393.365 137.62 394.411 136.255 395.136C134.89 395.861 133.354 396.224 131.647 396.224C129.94 396.224 128.404 395.861 127.039 395.136C125.695 394.411 124.628 393.365 123.839 392C123.071 390.613 122.687 389.003 122.687 387.168C122.687 385.333 123.071 383.733 123.839 382.368C124.628 381.003 125.695 379.957 127.039 379.232C128.404 378.507 129.94 378.144 131.647 378.144ZM131.647 381.312C130.708 381.312 129.844 381.525 129.055 381.952C128.266 382.379 127.626 383.04 127.135 383.936C126.666 384.811 126.431 385.888 126.431 387.168C126.431 388.469 126.666 389.557 127.135 390.432C127.626 391.307 128.266 391.957 129.055 392.384C129.844 392.811 130.708 393.024 131.647 393.024C132.586 393.024 133.45 392.811 134.239 392.384C135.028 391.957 135.658 391.307 136.127 390.432C136.618 389.557 136.863 388.469 136.863 387.168C136.863 385.888 136.618 384.811 136.127 383.936C135.658 383.04 135.028 382.379 134.239 381.952C133.45 381.525 132.586 381.312 131.647 381.312ZM151.186 378.144C152.786 378.144 154.152 378.539 155.282 379.328C156.413 380.117 157.202 381.163 157.65 382.464V372.32H161.33V396H157.65V391.904C157.202 393.205 156.413 394.251 155.282 395.04C154.152 395.829 152.786 396.224 151.186 396.224C149.65 396.224 148.274 395.861 147.058 395.136C145.864 394.411 144.925 393.365 144.242 392C143.56 390.635 143.218 389.024 143.218 387.168C143.218 385.333 143.56 383.733 144.242 382.368C144.925 381.003 145.864 379.957 147.058 379.232C148.274 378.507 149.65 378.144 151.186 378.144ZM152.306 381.344C150.685 381.344 149.384 381.867 148.402 382.912C147.442 383.936 146.962 385.355 146.962 387.168C146.962 388.981 147.442 390.411 148.402 391.456C149.384 392.48 150.685 392.992 152.306 392.992C153.33 392.992 154.248 392.757 155.058 392.288C155.869 391.797 156.509 391.115 156.978 390.24C157.448 389.365 157.682 388.341 157.682 387.168C157.682 386.016 157.448 385.003 156.978 384.128C156.509 383.232 155.869 382.549 155.058 382.08C154.248 381.589 153.33 381.344 152.306 381.344ZM189.132 373.76V396H185.452V379.328L179.02 396H175.82L169.356 379.328V396H165.708V373.76H170.124L177.484 391.52L184.716 373.76H189.132ZM200.593 378.144C202.193 378.144 203.558 378.539 204.689 379.328C205.819 380.117 206.619 381.163 207.089 382.464V378.368H210.737V396H207.089V391.904C206.619 393.205 205.819 394.251 204.689 395.04C203.558 395.829 202.193 396.224 200.593 396.224C199.057 396.224 197.681 395.861 196.465 395.136C195.27 394.411 194.331 393.365 193.649 392C192.966 390.635 192.625 389.024 192.625 387.168C192.625 385.333 192.966 383.733 193.649 382.368C194.331 381.003 195.27 379.957 196.465 379.232C197.681 378.507 199.057 378.144 200.593 378.144ZM201.713 381.344C200.091 381.344 198.79 381.867 197.809 382.912C196.849 383.936 196.369 385.355 196.369 387.168C196.369 388.981 196.849 390.411 197.809 391.456C198.79 392.48 200.091 392.992 201.713 392.992C202.737 392.992 203.654 392.757 204.465 392.288C205.275 391.797 205.915 391.115 206.385 390.24C206.854 389.365 207.089 388.341 207.089 387.168C207.089 386.016 206.854 385.003 206.385 384.128C205.915 383.232 205.275 382.549 204.465 382.08C203.654 381.589 202.737 381.344 201.713 381.344ZM218.762 381.824C219.36 380.672 220.213 379.765 221.322 379.104C222.432 378.421 223.712 378.08 225.162 378.08V382.048H224.074C222.474 382.048 221.184 382.443 220.202 383.232C219.242 384 218.762 385.28 218.762 387.072V396H215.114V378.368H218.762V381.824ZM237.88 396L231.544 388.16V396H227.896V372.32H231.544V385.888L237.816 378.368H242.2L234.52 387.136L242.392 396H237.88ZM261.155 386.336C261.155 386.933 261.112 387.456 261.027 387.904H247.459C247.523 389.717 248.024 391.061 248.963 391.936C249.901 392.811 251.064 393.248 252.451 393.248C253.667 393.248 254.691 392.939 255.523 392.32C256.376 391.701 256.899 390.88 257.091 389.856H260.995C260.76 391.093 260.269 392.192 259.523 393.152C258.776 394.112 257.805 394.869 256.611 395.424C255.416 395.957 254.083 396.224 252.611 396.224C250.904 396.224 249.389 395.861 248.067 395.136C246.765 394.411 245.741 393.365 244.995 392C244.248 390.635 243.875 389.024 243.875 387.168C243.875 385.333 244.248 383.733 244.995 382.368C245.741 381.003 246.765 379.957 248.067 379.232C249.389 378.507 250.904 378.144 252.611 378.144C254.339 378.144 255.843 378.507 257.123 379.232C258.424 379.936 259.416 380.917 260.099 382.176C260.803 383.413 261.155 384.8 261.155 386.336ZM257.475 386.24C257.517 385.088 257.315 384.128 256.867 383.36C256.44 382.571 255.843 381.995 255.075 381.632C254.328 381.248 253.507 381.056 252.611 381.056C251.181 381.056 249.987 381.493 249.027 382.368C248.067 383.243 247.544 384.533 247.459 386.24H257.475ZM273.541 392.832V396H271.301C269.423 396 267.994 395.552 267.013 394.656C266.053 393.739 265.573 392.224 265.573 390.112V381.472H263.045V378.368H265.573V373.984H269.253V378.368H273.509V381.472H269.253V390.176C269.253 391.179 269.434 391.872 269.797 392.256C270.181 392.64 270.842 392.832 271.781 392.832H273.541Z" fill="#020202"/>
<defs>
<clipPath id="clip0">
<rect width="100" height="100" fill="white" transform="translate(130 231)"/>
</clipPath>
</defs>
</svg>
